<mxfile host="app.diagrams.net" agent="Mozilla/5.0 (Windows NT 10.0; Win64; x64) AppleWebKit/537.36 (KHTML, like Gecko) Chrome/129.0.0.0 Safari/537.36" version="24.8.0">
  <diagram name="Strona-1" id="DCmV9VpIvqvDPdrRvZnc">
    <mxGraphModel dx="1114" dy="650" grid="1" gridSize="10" guides="1" tooltips="1" connect="1" arrows="1" fold="1" page="1" pageScale="1" pageWidth="1169" pageHeight="1654" math="0" shadow="0">
      <root>
        <mxCell id="0" />
        <mxCell id="1" parent="0" />
        <mxCell id="AOqb2BBZftlFT8lkI9-J-2" value="&lt;div style=&quot;&quot;&gt;Logowanie do systemu&lt;/div&gt;" style="rounded=1;whiteSpace=wrap;html=1;align=center;glass=0;shadow=0;" parent="1" vertex="1">
          <mxGeometry x="320" y="380" width="120" height="60" as="geometry" />
        </mxCell>
      </root>
    </mxGraphModel>
  </diagram>
</mxfile>
